<svg width="1200" height="760" viewBox="0 0 1200 760" fill="none" xmlns="http://www.w3.org/2000/svg">
  <defs>
    <linearGradient id="bg" x1="60" y1="54" x2="1140" y2="706" gradientUnits="userSpaceOnUse">
      <stop stop-color="#090A1F"/>
      <stop offset="0.5" stop-color="#1E1B4B"/>
      <stop offset="1" stop-color="#DB2777"/>
    </linearGradient>
    <radialGradient id="glow" cx="0" cy="0" r="1" gradientUnits="userSpaceOnUse" gradientTransform="translate(854 292) rotate(136) scale(430 320)">
      <stop stop-color="#60A5FA" stop-opacity="0.72"/>
      <stop offset="1" stop-color="#60A5FA" stop-opacity="0"/>
    </radialGradient>
    <filter id="shadow" x="34" y="30" width="1132" height="704" filterUnits="userSpaceOnUse" color-interpolation-filters="sRGB">
      <feDropShadow dx="0" dy="24" stdDeviation="24" flood-color="#000000" flood-opacity="0.36"/>
    </filter>
  </defs>
  <rect width="1200" height="760" fill="#050512"/>
  <rect x="60" y="54" width="1080" height="652" rx="34" fill="url(#bg)" filter="url(#shadow)"/>
  <rect x="60" y="54" width="1080" height="66" rx="34" fill="#07071A" fill-opacity="0.92"/>
  <circle cx="104" cy="87" r="8" fill="#F87171"/>
  <circle cx="130" cy="87" r="8" fill="#FBBF24"/>
  <circle cx="156" cy="87" r="8" fill="#34D399"/>
  <rect x="196" y="75" width="590" height="24" rx="12" fill="#FFFFFF" fill-opacity="0.12"/>
  <text x="226" y="92" fill="#D1D5DB" font-family="Inter, Arial, sans-serif" font-size="13">db23.co.za/takeittomarket</text>
  <rect x="60" y="120" width="1080" height="586" fill="url(#glow)"/>
  <text x="112" y="198" fill="#93C5FD" font-family="Inter, Arial, sans-serif" font-size="15" font-weight="800" letter-spacing="4">MARKETING &amp; AI SERVICES</text>
  <text x="112" y="286" fill="#FFFFFF" font-family="Inter, Arial, sans-serif" font-size="68" font-weight="900">Take It To Market</text>
  <text x="116" y="344" fill="#DBEAFE" font-family="Inter, Arial, sans-serif" font-size="24">Outsourced growth systems, AI support and automation.</text>
  <rect x="116" y="418" width="260" height="58" rx="18" fill="#60A5FA"/>
  <text x="154" y="454" fill="#06071A" font-family="Inter, Arial, sans-serif" font-size="18" font-weight="800">Launch growth</text>
  <rect x="714" y="208" width="320" height="366" rx="34" fill="#FFFFFF" fill-opacity="0.12" stroke="#FFFFFF" stroke-opacity="0.22"/>
  <path d="M770 472C810 380 864 326 964 278" stroke="#60A5FA" stroke-width="12" stroke-linecap="round"/>
  <circle cx="770" cy="472" r="24" fill="#F472B6"/>
  <circle cx="862" cy="350" r="28" fill="#60A5FA"/>
  <circle cx="964" cy="278" r="32" fill="#FFFFFF" fill-opacity="0.9"/>
  <rect x="764" y="514" width="218" height="16" rx="8" fill="#FFFFFF" fill-opacity="0.38"/>
  <rect x="764" y="544" width="152" height="16" rx="8" fill="#FFFFFF" fill-opacity="0.18"/>
</svg>
